<svg id="logo_white" xmlns="http://www.w3.org/2000/svg" viewBox="0 0 512 512"><defs><style>.cls-1{fill:#fafafa;}.cls-2{fill:#196a9b;}</style></defs><polygon class="cls-1" points="183.81 298.27 134.59 385.77 233.03 385.77 183.81 298.27"/><path class="cls-1" d="M505.33,503.82h-129C333.53,427,233.2,248,189.2,169.68H292.37C326.59,223.11,476,454.28,505.33,503.82Z"/><polygon class="cls-2" points="403.9 503.82 375.9 503.82 189.2 169.68 217.2 169.68 403.9 503.82"/><path class="cls-1" d="M252.62,8.13C117,8.13,6.67,118.45,6.67,254.05c0,.31,0,.63,0,.94s0,.67,0,1A245.75,245.75,0,0,0,50.32,396.08l59.51-105.8a148.69,148.69,0,0,1-3.3-20.16c-.26-4.83-.34-10.05-.34-16.07a146.19,146.19,0,0,1,2.87-28.88c.07-.36.14-.73.22-1.09l.15-.68A150.6,150.6,0,0,1,151.74,148a145.91,145.91,0,0,1,100.88-40.38c80.72,0,146.4,65.68,146.4,146.4A146.73,146.73,0,0,1,336.6,374l57.21,81.45A246.38,246.38,0,0,0,498.54,254.05C498.54,118.45,388.22,8.13,252.62,8.13Z"/><path class="cls-1" d="M273.2,455.53H107.87a254,254,0,0,0,151.62,49.8,257.66,257.66,0,0,0,40.23-3.15Z"/></svg>